<svg width="404" height="113" viewBox="0 0 404 113" fill="none" xmlns="http://www.w3.org/2000/svg">
<rect width="404" height="113" fill="white"/>
<path d="M9 69.5L395 71" stroke="black" stroke-width="3"/>
<line x1="9.5" y1="37" x2="9.5" y2="101" stroke="black"/>
<line x1="86.5" y1="37" x2="86.5" y2="101" stroke="black"/>
<line x1="29.5" y1="49" x2="29.5" y2="87" stroke="black"/>
<line x1="49.5" y1="50" x2="49.5" y2="88" stroke="black"/>
<line x1="68.5" y1="50" x2="68.5" y2="88" stroke="black"/>
<line x1="395.5" y1="34" x2="395.5" y2="98" stroke="black"/>
<line x1="315.5" y1="35" x2="315.5" y2="99" stroke="black"/>
<line x1="335.5" y1="47" x2="335.5" y2="85" stroke="black"/>
<line x1="355.5" y1="48" x2="355.5" y2="86" stroke="black"/>
<line x1="374.5" y1="48" x2="374.5" y2="86" stroke="black"/>
<line x1="237.5" y1="37" x2="237.5" y2="101" stroke="black"/>
<line x1="257.5" y1="49" x2="257.5" y2="87" stroke="black"/>
<line x1="277.5" y1="50" x2="277.5" y2="88" stroke="black"/>
<line x1="296.5" y1="50" x2="296.5" y2="88" stroke="black"/>
<line x1="158.5" y1="37" x2="158.5" y2="101" stroke="black"/>
<line x1="178.5" y1="49" x2="178.5" y2="87" stroke="black"/>
<line x1="198.5" y1="50" x2="198.5" y2="88" stroke="black"/>
<line x1="217.5" y1="50" x2="217.5" y2="88" stroke="black"/>
<line x1="99.5" y1="50" x2="99.5" y2="88" stroke="black"/>
<line x1="119.5" y1="51" x2="119.5" y2="89" stroke="black"/>
<line x1="138.5" y1="51" x2="138.5" y2="89" stroke="black"/>
<path d="M12.0586 106.361C12.0586 107.631 11.8418 108.574 11.4082 109.191C10.9746 109.809 10.2969 110.117 9.375 110.117C8.46484 110.117 7.79102 109.816 7.35352 109.215C6.91602 108.609 6.68945 107.707 6.67383 106.508V105.061C6.67383 103.807 6.89062 102.875 7.32422 102.266C7.75781 101.656 8.4375 101.352 9.36328 101.352C10.2812 101.352 10.957 101.646 11.3906 102.236C11.8242 102.822 12.0469 103.729 12.0586 104.955V106.361ZM10.9746 104.879C10.9746 103.961 10.8457 103.293 10.5879 102.875C10.3301 102.453 9.92188 102.242 9.36328 102.242C8.80859 102.242 8.4043 102.451 8.15039 102.869C7.89648 103.287 7.76562 103.93 7.75781 104.797V106.531C7.75781 107.453 7.89062 108.135 8.15625 108.576C8.42578 109.014 8.83203 109.232 9.375 109.232C9.91016 109.232 10.3066 109.025 10.5645 108.611C10.8262 108.197 10.9629 107.545 10.9746 106.654V104.879Z" fill="black"/>
<path d="M87.2715 110H86.1816V102.775L83.9961 103.578V102.594L87.1016 101.428H87.2715V110Z" fill="black"/>
<path d="M161.299 110H155.709V109.221L158.662 105.939C159.1 105.443 159.4 105.041 159.564 104.732C159.732 104.42 159.816 104.098 159.816 103.766C159.816 103.32 159.682 102.955 159.412 102.67C159.143 102.385 158.783 102.242 158.334 102.242C157.795 102.242 157.375 102.396 157.074 102.705C156.777 103.01 156.629 103.436 156.629 103.982H155.545C155.545 103.197 155.797 102.562 156.301 102.078C156.809 101.594 157.486 101.352 158.334 101.352C159.127 101.352 159.754 101.561 160.215 101.979C160.676 102.393 160.906 102.945 160.906 103.637C160.906 104.477 160.371 105.477 159.301 106.637L157.016 109.115H161.299V110Z" fill="black"/>
<path d="M161.299 110H155.709V109.221L158.662 105.939C159.1 105.443 159.4 105.041 159.564 104.732C159.732 104.42 159.816 104.098 159.816 103.766C159.816 103.32 159.682 102.955 159.412 102.67C159.143 102.385 158.783 102.242 158.334 102.242C157.795 102.242 157.375 102.396 157.074 102.705C156.777 103.01 156.629 103.436 156.629 103.982H155.545C155.545 103.197 155.797 102.562 156.301 102.078C156.809 101.594 157.486 101.352 158.334 101.352C159.127 101.352 159.754 101.561 160.215 101.979C160.676 102.393 160.906 102.945 160.906 103.637C160.906 104.477 160.371 105.477 159.301 106.637L157.016 109.115H161.299V110Z" fill="black"/>
<path d="M236.285 105.207H237.1C237.611 105.199 238.014 105.064 238.307 104.803C238.6 104.541 238.746 104.188 238.746 103.742C238.746 102.742 238.248 102.242 237.252 102.242C236.783 102.242 236.408 102.377 236.127 102.646C235.85 102.912 235.711 103.266 235.711 103.707H234.627C234.627 103.031 234.873 102.471 235.365 102.025C235.861 101.576 236.49 101.352 237.252 101.352C238.057 101.352 238.688 101.564 239.145 101.99C239.602 102.416 239.83 103.008 239.83 103.766C239.83 104.137 239.709 104.496 239.467 104.844C239.229 105.191 238.902 105.451 238.488 105.623C238.957 105.771 239.318 106.018 239.572 106.361C239.83 106.705 239.959 107.125 239.959 107.621C239.959 108.387 239.709 108.994 239.209 109.443C238.709 109.893 238.059 110.117 237.258 110.117C236.457 110.117 235.805 109.9 235.301 109.467C234.801 109.033 234.551 108.461 234.551 107.75H235.641C235.641 108.199 235.787 108.559 236.08 108.828C236.373 109.098 236.766 109.232 237.258 109.232C237.781 109.232 238.182 109.096 238.459 108.822C238.736 108.549 238.875 108.156 238.875 107.645C238.875 107.148 238.723 106.768 238.418 106.502C238.113 106.236 237.674 106.1 237.1 106.092H236.285V105.207Z" fill="black"/>
<path d="M317.285 107.135H318.469V108.02H317.285V110H316.195V108.02H312.311V107.381L316.131 101.469H317.285V107.135ZM313.541 107.135H316.195V102.951L316.066 103.186L313.541 107.135Z" fill="black"/>
<path d="M393.207 105.723L393.641 101.469H398.012V102.471H394.561L394.303 104.797C394.721 104.551 395.195 104.428 395.727 104.428C396.504 104.428 397.121 104.686 397.578 105.201C398.035 105.713 398.264 106.406 398.264 107.281C398.264 108.16 398.025 108.854 397.549 109.361C397.076 109.865 396.414 110.117 395.562 110.117C394.809 110.117 394.193 109.908 393.717 109.49C393.24 109.072 392.969 108.494 392.902 107.756H393.928C393.994 108.244 394.168 108.613 394.449 108.863C394.73 109.109 395.102 109.232 395.562 109.232C396.066 109.232 396.461 109.061 396.746 108.717C397.035 108.373 397.18 107.898 397.18 107.293C397.18 106.723 397.023 106.266 396.711 105.922C396.402 105.574 395.99 105.4 395.475 105.4C395.002 105.4 394.631 105.504 394.361 105.711L394.074 105.945L393.207 105.723Z" fill="black"/>
<path d="M11.021 29.3101H14.0532V30H10.1729V23.6016H11.021V29.3101ZM14.6729 27.5786C14.6729 27.1128 14.7637 26.6938 14.9453 26.3218C15.1299 25.9497 15.3848 25.6626 15.71 25.4604C16.0381 25.2583 16.4116 25.1572 16.8306 25.1572C17.478 25.1572 18.001 25.3813 18.3994 25.8296C18.8008 26.2778 19.0015 26.874 19.0015 27.6182V27.6753C19.0015 28.1382 18.9121 28.5542 18.7334 28.9233C18.5576 29.2896 18.3042 29.5752 17.9731 29.7803C17.645 29.9854 17.2671 30.0879 16.8394 30.0879C16.1948 30.0879 15.6719 29.8638 15.2705 29.4155C14.8721 28.9673 14.6729 28.374 14.6729 27.6357V27.5786ZM15.4902 27.6753C15.4902 28.2026 15.6118 28.626 15.855 28.9453C16.1011 29.2646 16.4292 29.4243 16.8394 29.4243C17.2524 29.4243 17.5806 29.2632 17.8237 28.9409C18.0669 28.6157 18.1885 28.1616 18.1885 27.5786C18.1885 27.0571 18.064 26.6353 17.8149 26.313C17.5688 25.9878 17.2407 25.8252 16.8306 25.8252C16.4292 25.8252 16.1055 25.9849 15.8594 26.3042C15.6133 26.6235 15.4902 27.0806 15.4902 27.6753ZM24.231 28.8794L25.145 25.2451H25.958L24.5737 30H23.9146L22.7588 26.3965L21.6338 30H20.9746L19.5947 25.2451H20.4033L21.3394 28.8047L22.4468 25.2451H23.1016L24.231 28.8794ZM33.855 27.9697C33.7759 28.6465 33.5254 29.1694 33.1035 29.5386C32.6846 29.9048 32.1265 30.0879 31.4292 30.0879C30.6733 30.0879 30.0669 29.8169 29.6099 29.2749C29.1558 28.7329 28.9287 28.0078 28.9287 27.0996V26.4844C28.9287 25.8896 29.0342 25.3667 29.2451 24.9155C29.459 24.4644 29.7607 24.1187 30.1504 23.8784C30.54 23.6353 30.9912 23.5137 31.5039 23.5137C32.1836 23.5137 32.7285 23.7041 33.1387 24.085C33.5488 24.4629 33.7876 24.9873 33.855 25.6582H33.0068C32.9336 25.1484 32.7739 24.7793 32.5278 24.5508C32.2847 24.3223 31.9434 24.208 31.5039 24.208C30.9648 24.208 30.5415 24.4072 30.2339 24.8057C29.9292 25.2041 29.7769 25.771 29.7769 26.5063V27.126C29.7769 27.8203 29.9219 28.3726 30.2119 28.7827C30.502 29.1929 30.9077 29.3979 31.4292 29.3979C31.8979 29.3979 32.2568 29.2925 32.5059 29.0815C32.7578 28.8677 32.9248 28.4971 33.0068 27.9697H33.855ZM35.6963 25.8208C36.0566 25.3784 36.5254 25.1572 37.1025 25.1572C38.1074 25.1572 38.6143 25.7241 38.623 26.8579V30H37.8101V26.8535C37.8071 26.5107 37.728 26.2573 37.5728 26.0933C37.4204 25.9292 37.1816 25.8472 36.8564 25.8472C36.5928 25.8472 36.3613 25.9175 36.1621 26.0581C35.9629 26.1987 35.8076 26.3833 35.6963 26.6118V30H34.8833V23.25H35.6963V25.8208ZM42.7759 30C42.729 29.9062 42.6909 29.7393 42.6616 29.499C42.2837 29.8916 41.8325 30.0879 41.3081 30.0879C40.8394 30.0879 40.4541 29.9561 40.1523 29.6924C39.8535 29.4258 39.7041 29.0889 39.7041 28.6816C39.7041 28.1865 39.8916 27.8027 40.2666 27.5303C40.6445 27.2549 41.1748 27.1172 41.8574 27.1172H42.6484V26.7437C42.6484 26.4595 42.5635 26.2339 42.3936 26.0669C42.2236 25.897 41.9731 25.812 41.6421 25.812C41.3521 25.812 41.1089 25.8853 40.9126 26.0317C40.7163 26.1782 40.6182 26.3555 40.6182 26.5635H39.8008C39.8008 26.3262 39.8843 26.0977 40.0513 25.8779C40.2212 25.6553 40.4497 25.4795 40.7368 25.3506C41.0269 25.2217 41.3447 25.1572 41.6904 25.1572C42.2383 25.1572 42.6675 25.2949 42.978 25.5703C43.2886 25.8428 43.4497 26.2192 43.4614 26.6997V28.8882C43.4614 29.3247 43.5171 29.6719 43.6284 29.9297V30H42.7759ZM41.4268 29.3804C41.6816 29.3804 41.9233 29.3145 42.1519 29.1826C42.3804 29.0508 42.5459 28.8794 42.6484 28.6685V27.6929H42.0112C41.0151 27.6929 40.5171 27.9844 40.5171 28.5674C40.5171 28.8223 40.6021 29.0215 40.772 29.165C40.9419 29.3086 41.1602 29.3804 41.4268 29.3804ZM45.5049 25.2451L45.5312 25.8428C45.8945 25.3857 46.3691 25.1572 46.9551 25.1572C47.96 25.1572 48.4668 25.7241 48.4756 26.8579V30H47.6626V26.8535C47.6597 26.5107 47.5806 26.2573 47.4253 26.0933C47.2729 25.9292 47.0342 25.8472 46.709 25.8472C46.4453 25.8472 46.2139 25.9175 46.0146 26.0581C45.8154 26.1987 45.6602 26.3833 45.5488 26.6118V30H44.7358V25.2451H45.5049ZM51.6089 29.4243C51.8989 29.4243 52.1523 29.3364 52.3691 29.1606C52.5859 28.9849 52.7061 28.7651 52.7295 28.5015H53.4985C53.4839 28.7739 53.3901 29.0332 53.2173 29.2793C53.0444 29.5254 52.813 29.7217 52.5229 29.8682C52.2358 30.0146 51.9312 30.0879 51.6089 30.0879C50.9614 30.0879 50.4458 29.8726 50.062 29.4419C49.6812 29.0083 49.4907 28.4165 49.4907 27.6665V27.5303C49.4907 27.0674 49.5757 26.6558 49.7456 26.2954C49.9155 25.9351 50.1587 25.6553 50.4751 25.4561C50.7944 25.2568 51.1709 25.1572 51.6045 25.1572C52.1377 25.1572 52.5801 25.3169 52.9316 25.6362C53.2861 25.9556 53.4751 26.3701 53.4985 26.8799H52.7295C52.7061 26.5723 52.5889 26.3203 52.3779 26.124C52.1699 25.9248 51.9121 25.8252 51.6045 25.8252C51.1914 25.8252 50.8706 25.9746 50.6421 26.2734C50.4165 26.5693 50.3037 26.9985 50.3037 27.561V27.7148C50.3037 28.2627 50.4165 28.6846 50.6421 28.9805C50.8677 29.2764 51.1899 29.4243 51.6089 29.4243ZM56.3857 30.0879C55.7412 30.0879 55.2168 29.877 54.8125 29.4551C54.4082 29.0303 54.2061 28.4634 54.2061 27.7544V27.605C54.2061 27.1333 54.2954 26.7129 54.4741 26.3438C54.6558 25.9717 54.9077 25.6816 55.23 25.4736C55.5552 25.2627 55.9067 25.1572 56.2847 25.1572C56.9028 25.1572 57.3833 25.3608 57.7261 25.7681C58.0688 26.1753 58.2402 26.7583 58.2402 27.5171V27.8555H55.019C55.0308 28.3242 55.167 28.7036 55.4277 28.9937C55.6914 29.2808 56.0254 29.4243 56.4297 29.4243C56.7168 29.4243 56.96 29.3657 57.1592 29.2485C57.3584 29.1313 57.5327 28.9761 57.6821 28.7827L58.1787 29.1694C57.7803 29.7817 57.1826 30.0879 56.3857 30.0879ZM56.2847 25.8252C55.9565 25.8252 55.6812 25.9453 55.4585 26.1855C55.2358 26.4229 55.0981 26.7568 55.0454 27.1875H57.4272V27.126C57.4038 26.7129 57.2925 26.3936 57.0933 26.168C56.894 25.9395 56.6245 25.8252 56.2847 25.8252Z" fill="black"/>
<path d="M186.617 28.3301H183.937L183.334 30H182.464L184.908 23.6016H185.646L188.094 30H187.228L186.617 28.3301ZM184.191 27.6357H186.367L185.277 24.6431L184.191 27.6357ZM190.177 28.897L191.354 25.2451H192.185L190.48 30H189.86L188.138 25.2451H188.968L190.177 28.897ZM194.879 30.0879C194.234 30.0879 193.71 29.877 193.306 29.4551C192.901 29.0303 192.699 28.4634 192.699 27.7544V27.605C192.699 27.1333 192.789 26.7129 192.967 26.3438C193.149 25.9717 193.401 25.6816 193.723 25.4736C194.048 25.2627 194.4 25.1572 194.778 25.1572C195.396 25.1572 195.876 25.3608 196.219 25.7681C196.562 26.1753 196.733 26.7583 196.733 27.5171V27.8555H193.512C193.524 28.3242 193.66 28.7036 193.921 28.9937C194.185 29.2808 194.519 29.4243 194.923 29.4243C195.21 29.4243 195.453 29.3657 195.652 29.2485C195.852 29.1313 196.026 28.9761 196.175 28.7827L196.672 29.1694C196.273 29.7817 195.676 30.0879 194.879 30.0879ZM194.778 25.8252C194.45 25.8252 194.174 25.9453 193.952 26.1855C193.729 26.4229 193.591 26.7568 193.539 27.1875H195.92V27.126C195.897 26.7129 195.786 26.3936 195.586 26.168C195.387 25.9395 195.118 25.8252 194.778 25.8252ZM199.977 25.9746C199.854 25.9541 199.72 25.9438 199.577 25.9438C199.043 25.9438 198.682 26.1709 198.491 26.625V30H197.678V25.2451H198.469L198.482 25.7944C198.749 25.3696 199.127 25.1572 199.616 25.1572C199.774 25.1572 199.895 25.1777 199.977 25.2188V25.9746ZM203.488 30C203.441 29.9062 203.403 29.7393 203.374 29.499C202.996 29.8916 202.544 30.0879 202.02 30.0879C201.551 30.0879 201.166 29.9561 200.864 29.6924C200.565 29.4258 200.416 29.0889 200.416 28.6816C200.416 28.1865 200.604 27.8027 200.979 27.5303C201.356 27.2549 201.887 27.1172 202.569 27.1172H203.36V26.7437C203.36 26.4595 203.275 26.2339 203.105 26.0669C202.936 25.897 202.685 25.812 202.354 25.812C202.064 25.812 201.821 25.8853 201.625 26.0317C201.428 26.1782 201.33 26.3555 201.33 26.5635H200.513C200.513 26.3262 200.596 26.0977 200.763 25.8779C200.933 25.6553 201.162 25.4795 201.449 25.3506C201.739 25.2217 202.057 25.1572 202.402 25.1572C202.95 25.1572 203.379 25.2949 203.69 25.5703C204 25.8428 204.162 26.2192 204.173 26.6997V28.8882C204.173 29.3247 204.229 29.6719 204.34 29.9297V30H203.488ZM202.139 29.3804C202.394 29.3804 202.635 29.3145 202.864 29.1826C203.092 29.0508 203.258 28.8794 203.36 28.6685V27.6929H202.723C201.727 27.6929 201.229 27.9844 201.229 28.5674C201.229 28.8223 201.314 29.0215 201.484 29.165C201.654 29.3086 201.872 29.3804 202.139 29.3804ZM205.254 27.583C205.254 26.8418 205.426 26.2529 205.769 25.8164C206.111 25.377 206.565 25.1572 207.131 25.1572C207.711 25.1572 208.164 25.3623 208.489 25.7725L208.528 25.2451H209.271V29.8857C209.271 30.501 209.088 30.9858 208.722 31.3403C208.358 31.6948 207.869 31.8721 207.254 31.8721C206.911 31.8721 206.576 31.7988 206.248 31.6523C205.919 31.5059 205.669 31.3052 205.496 31.0503L205.918 30.5625C206.267 30.9932 206.693 31.2085 207.197 31.2085C207.592 31.2085 207.9 31.0972 208.12 30.8745C208.342 30.6519 208.454 30.3384 208.454 29.9341V29.5254C208.128 29.9004 207.685 30.0879 207.122 30.0879C206.565 30.0879 206.114 29.8638 205.769 29.4155C205.426 28.9673 205.254 28.3564 205.254 27.583ZM206.072 27.6753C206.072 28.2114 206.182 28.6333 206.401 28.9409C206.621 29.2456 206.929 29.3979 207.324 29.3979C207.837 29.3979 208.213 29.165 208.454 28.6992V26.5283C208.205 26.0742 207.831 25.8472 207.333 25.8472C206.938 25.8472 206.628 26.001 206.406 26.3086C206.183 26.6162 206.072 27.0718 206.072 27.6753ZM212.475 30.0879C211.83 30.0879 211.306 29.877 210.901 29.4551C210.497 29.0303 210.295 28.4634 210.295 27.7544V27.605C210.295 27.1333 210.384 26.7129 210.563 26.3438C210.745 25.9717 210.997 25.6816 211.319 25.4736C211.644 25.2627 211.996 25.1572 212.374 25.1572C212.992 25.1572 213.472 25.3608 213.815 25.7681C214.158 26.1753 214.329 26.7583 214.329 27.5171V27.8555H211.108C211.12 28.3242 211.256 28.7036 211.517 28.9937C211.78 29.2808 212.114 29.4243 212.519 29.4243C212.806 29.4243 213.049 29.3657 213.248 29.2485C213.447 29.1313 213.622 28.9761 213.771 28.7827L214.268 29.1694C213.869 29.7817 213.271 30.0879 212.475 30.0879ZM212.374 25.8252C212.045 25.8252 211.77 25.9453 211.547 26.1855C211.325 26.4229 211.187 26.7568 211.134 27.1875H213.516V27.126C213.493 26.7129 213.381 26.3936 213.182 26.168C212.983 25.9395 212.713 25.8252 212.374 25.8252Z" fill="black"/>
<path d="M350.154 30H349.306V27.0425H346.081V30H345.237V23.6016H346.081V26.3525H349.306V23.6016H350.154V30ZM352.409 30H351.596V25.2451H352.409V30ZM351.53 23.9839C351.53 23.8521 351.569 23.7407 351.648 23.6499C351.73 23.5591 351.851 23.5137 352.009 23.5137C352.167 23.5137 352.287 23.5591 352.369 23.6499C352.451 23.7407 352.492 23.8521 352.492 23.9839C352.492 24.1157 352.451 24.2256 352.369 24.3135C352.287 24.4014 352.167 24.4453 352.009 24.4453C351.851 24.4453 351.73 24.4014 351.648 24.3135C351.569 24.2256 351.53 24.1157 351.53 23.9839ZM353.521 27.583C353.521 26.8418 353.692 26.2529 354.035 25.8164C354.377 25.377 354.832 25.1572 355.397 25.1572C355.977 25.1572 356.43 25.3623 356.755 25.7725L356.794 25.2451H357.537V29.8857C357.537 30.501 357.354 30.9858 356.988 31.3403C356.625 31.6948 356.135 31.8721 355.52 31.8721C355.177 31.8721 354.842 31.7988 354.514 31.6523C354.186 31.5059 353.935 31.3052 353.762 31.0503L354.184 30.5625C354.533 30.9932 354.959 31.2085 355.463 31.2085C355.858 31.2085 356.166 31.0972 356.386 30.8745C356.608 30.6519 356.72 30.3384 356.72 29.9341V29.5254C356.395 29.9004 355.951 30.0879 355.388 30.0879C354.832 30.0879 354.38 29.8638 354.035 29.4155C353.692 28.9673 353.521 28.3564 353.521 27.583ZM354.338 27.6753C354.338 28.2114 354.448 28.6333 354.667 28.9409C354.887 29.2456 355.195 29.3979 355.59 29.3979C356.103 29.3979 356.479 29.165 356.72 28.6992V26.5283C356.471 26.0742 356.097 25.8472 355.599 25.8472C355.204 25.8472 354.895 26.001 354.672 26.3086C354.449 26.6162 354.338 27.0718 354.338 27.6753ZM359.581 25.8208C359.941 25.3784 360.41 25.1572 360.987 25.1572C361.992 25.1572 362.499 25.7241 362.507 26.8579V30H361.694V26.8535C361.691 26.5107 361.612 26.2573 361.457 26.0933C361.305 25.9292 361.066 25.8472 360.741 25.8472C360.477 25.8472 360.246 25.9175 360.046 26.0581C359.847 26.1987 359.692 26.3833 359.581 26.6118V30H358.768V23.25H359.581V25.8208ZM370.791 27.9697C370.712 28.6465 370.461 29.1694 370.04 29.5386C369.621 29.9048 369.062 30.0879 368.365 30.0879C367.609 30.0879 367.003 29.8169 366.546 29.2749C366.092 28.7329 365.865 28.0078 365.865 27.0996V26.4844C365.865 25.8896 365.97 25.3667 366.181 24.9155C366.395 24.4644 366.697 24.1187 367.086 23.8784C367.476 23.6353 367.927 23.5137 368.44 23.5137C369.12 23.5137 369.665 23.7041 370.075 24.085C370.485 24.4629 370.724 24.9873 370.791 25.6582H369.943C369.87 25.1484 369.71 24.7793 369.464 24.5508C369.221 24.3223 368.879 24.208 368.44 24.208C367.901 24.208 367.478 24.4072 367.17 24.8057C366.865 25.2041 366.713 25.771 366.713 26.5063V27.126C366.713 27.8203 366.858 28.3726 367.148 28.7827C367.438 29.1929 367.844 29.3979 368.365 29.3979C368.834 29.3979 369.193 29.2925 369.442 29.0815C369.694 28.8677 369.861 28.4971 369.943 27.9697H370.791ZM372.632 25.8208C372.993 25.3784 373.461 25.1572 374.039 25.1572C375.043 25.1572 375.55 25.7241 375.559 26.8579V30H374.746V26.8535C374.743 26.5107 374.664 26.2573 374.509 26.0933C374.356 25.9292 374.118 25.8472 373.792 25.8472C373.529 25.8472 373.297 25.9175 373.098 26.0581C372.899 26.1987 372.744 26.3833 372.632 26.6118V30H371.819V23.25H372.632V25.8208ZM379.712 30C379.665 29.9062 379.627 29.7393 379.598 29.499C379.22 29.8916 378.769 30.0879 378.244 30.0879C377.775 30.0879 377.39 29.9561 377.088 29.6924C376.79 29.4258 376.64 29.0889 376.64 28.6816C376.64 28.1865 376.828 27.8027 377.203 27.5303C377.581 27.2549 378.111 27.1172 378.793 27.1172H379.584V26.7437C379.584 26.4595 379.5 26.2339 379.33 26.0669C379.16 25.897 378.909 25.812 378.578 25.812C378.288 25.812 378.045 25.8853 377.849 26.0317C377.652 26.1782 377.554 26.3555 377.554 26.5635H376.737C376.737 26.3262 376.82 26.0977 376.987 25.8779C377.157 25.6553 377.386 25.4795 377.673 25.3506C377.963 25.2217 378.281 25.1572 378.626 25.1572C379.174 25.1572 379.604 25.2949 379.914 25.5703C380.225 25.8428 380.386 26.2192 380.397 26.6997V28.8882C380.397 29.3247 380.453 29.6719 380.564 29.9297V30H379.712ZM378.363 29.3804C378.618 29.3804 378.859 29.3145 379.088 29.1826C379.316 29.0508 379.482 28.8794 379.584 28.6685V27.6929H378.947C377.951 27.6929 377.453 27.9844 377.453 28.5674C377.453 28.8223 377.538 29.0215 377.708 29.165C377.878 29.3086 378.096 29.3804 378.363 29.3804ZM382.441 25.2451L382.467 25.8428C382.831 25.3857 383.305 25.1572 383.891 25.1572C384.896 25.1572 385.403 25.7241 385.412 26.8579V30H384.599V26.8535C384.596 26.5107 384.517 26.2573 384.361 26.0933C384.209 25.9292 383.97 25.8472 383.645 25.8472C383.381 25.8472 383.15 25.9175 382.951 26.0581C382.751 26.1987 382.596 26.3833 382.485 26.6118V30H381.672V25.2451H382.441ZM388.545 29.4243C388.835 29.4243 389.088 29.3364 389.305 29.1606C389.522 28.9849 389.642 28.7651 389.666 28.5015H390.435C390.42 28.7739 390.326 29.0332 390.153 29.2793C389.98 29.5254 389.749 29.7217 389.459 29.8682C389.172 30.0146 388.867 30.0879 388.545 30.0879C387.897 30.0879 387.382 29.8726 386.998 29.4419C386.617 29.0083 386.427 28.4165 386.427 27.6665V27.5303C386.427 27.0674 386.512 26.6558 386.682 26.2954C386.852 25.9351 387.095 25.6553 387.411 25.4561C387.73 25.2568 388.107 25.1572 388.541 25.1572C389.074 25.1572 389.516 25.3169 389.868 25.6362C390.222 25.9556 390.411 26.3701 390.435 26.8799H389.666C389.642 26.5723 389.525 26.3203 389.314 26.124C389.106 25.9248 388.848 25.8252 388.541 25.8252C388.127 25.8252 387.807 25.9746 387.578 26.2734C387.353 26.5693 387.24 26.9985 387.24 27.561V27.7148C387.24 28.2627 387.353 28.6846 387.578 28.9805C387.804 29.2764 388.126 29.4243 388.545 29.4243ZM393.322 30.0879C392.677 30.0879 392.153 29.877 391.749 29.4551C391.344 29.0303 391.142 28.4634 391.142 27.7544V27.605C391.142 27.1333 391.231 26.7129 391.41 26.3438C391.592 25.9717 391.844 25.6816 392.166 25.4736C392.491 25.2627 392.843 25.1572 393.221 25.1572C393.839 25.1572 394.319 25.3608 394.662 25.7681C395.005 26.1753 395.176 26.7583 395.176 27.5171V27.8555H391.955C391.967 28.3242 392.103 28.7036 392.364 28.9937C392.627 29.2808 392.961 29.4243 393.366 29.4243C393.653 29.4243 393.896 29.3657 394.095 29.2485C394.294 29.1313 394.469 28.9761 394.618 28.7827L395.115 29.1694C394.716 29.7817 394.119 30.0879 393.322 30.0879ZM393.221 25.8252C392.893 25.8252 392.617 25.9453 392.395 26.1855C392.172 26.4229 392.034 26.7568 391.981 27.1875H394.363V27.126C394.34 26.7129 394.229 26.3936 394.029 26.168C393.83 25.9395 393.561 25.8252 393.221 25.8252Z" fill="black"/>
<path d="M164.656 11.293C164.551 12.1953 164.217 12.8926 163.654 13.3848C163.096 13.873 162.352 14.1172 161.422 14.1172C160.414 14.1172 159.605 13.7559 158.996 13.0332C158.391 12.3105 158.088 11.3438 158.088 10.1328V9.3125C158.088 8.51953 158.229 7.82227 158.51 7.2207C158.795 6.61914 159.197 6.1582 159.717 5.83789C160.236 5.51367 160.838 5.35156 161.521 5.35156C162.428 5.35156 163.154 5.60547 163.701 6.11328C164.248 6.61719 164.566 7.31641 164.656 8.21094H163.525C163.428 7.53125 163.215 7.03906 162.887 6.73438C162.562 6.42969 162.107 6.27734 161.521 6.27734C160.803 6.27734 160.238 6.54297 159.828 7.07422C159.422 7.60547 159.219 8.36133 159.219 9.3418V10.168C159.219 11.0938 159.412 11.8301 159.799 12.377C160.186 12.9238 160.727 13.1973 161.422 13.1973C162.047 13.1973 162.525 13.0566 162.857 12.7754C163.193 12.4902 163.416 11.9961 163.525 11.293H164.656ZM165.74 10.7715C165.74 10.1504 165.861 9.5918 166.104 9.0957C166.35 8.59961 166.689 8.2168 167.123 7.94727C167.561 7.67773 168.059 7.54297 168.617 7.54297C169.48 7.54297 170.178 7.8418 170.709 8.43945C171.244 9.03711 171.512 9.83203 171.512 10.8242V10.9004C171.512 11.5176 171.393 12.0723 171.154 12.5645C170.92 13.0527 170.582 13.4336 170.141 13.707C169.703 13.9805 169.199 14.1172 168.629 14.1172C167.77 14.1172 167.072 13.8184 166.537 13.2207C166.006 12.623 165.74 11.832 165.74 10.8477V10.7715ZM166.83 10.9004C166.83 11.6035 166.992 12.168 167.316 12.5938C167.645 13.0195 168.082 13.2324 168.629 13.2324C169.18 13.2324 169.617 13.0176 169.941 12.5879C170.266 12.1543 170.428 11.5488 170.428 10.7715C170.428 10.0762 170.262 9.51367 169.93 9.08398C169.602 8.65039 169.164 8.43359 168.617 8.43359C168.082 8.43359 167.65 8.64648 167.322 9.07227C166.994 9.49805 166.83 10.1074 166.83 10.9004ZM174.869 12.5293L176.439 7.66016H177.547L175.273 14H174.447L172.15 7.66016H173.258L174.869 12.5293ZM179.768 14H178.684V7.66016H179.768V14ZM178.596 5.97852C178.596 5.80273 178.648 5.6543 178.754 5.5332C178.863 5.41211 179.023 5.35156 179.234 5.35156C179.445 5.35156 179.605 5.41211 179.715 5.5332C179.824 5.6543 179.879 5.80273 179.879 5.97852C179.879 6.1543 179.824 6.30078 179.715 6.41797C179.605 6.53516 179.445 6.59375 179.234 6.59375C179.023 6.59375 178.863 6.53516 178.754 6.41797C178.648 6.30078 178.596 6.1543 178.596 5.97852ZM181.244 10.7773C181.244 9.80469 181.475 9.02344 181.936 8.43359C182.396 7.83984 183 7.54297 183.746 7.54297C184.488 7.54297 185.076 7.79688 185.51 8.30469V5H186.594V14H185.598L185.545 13.3203C185.111 13.8516 184.508 14.1172 183.734 14.1172C183 14.1172 182.4 13.8164 181.936 13.2148C181.475 12.6133 181.244 11.8281 181.244 10.8594V10.7773ZM182.328 10.9004C182.328 11.6191 182.477 12.1816 182.773 12.5879C183.07 12.9941 183.48 13.1973 184.004 13.1973C184.691 13.1973 185.193 12.8887 185.51 12.2715V9.35938C185.186 8.76172 184.688 8.46289 184.016 8.46289C183.484 8.46289 183.07 8.66797 182.773 9.07812C182.477 9.48828 182.328 10.0957 182.328 10.9004ZM192.635 14H191.51V5.46875H192.635V14ZM195.553 7.66016L195.588 8.45703C196.072 7.84766 196.705 7.54297 197.486 7.54297C198.826 7.54297 199.502 8.29883 199.514 9.81055V14H198.43V9.80469C198.426 9.34766 198.32 9.00977 198.113 8.79102C197.91 8.57227 197.592 8.46289 197.158 8.46289C196.807 8.46289 196.498 8.55664 196.232 8.74414C195.967 8.93164 195.76 9.17773 195.611 9.48242V14H194.527V7.66016H195.553ZM200.885 10.7773C200.885 9.80469 201.115 9.02344 201.576 8.43359C202.037 7.83984 202.641 7.54297 203.387 7.54297C204.129 7.54297 204.717 7.79688 205.15 8.30469V5H206.234V14H205.238L205.186 13.3203C204.752 13.8516 204.148 14.1172 203.375 14.1172C202.641 14.1172 202.041 13.8164 201.576 13.2148C201.115 12.6133 200.885 11.8281 200.885 10.8594V10.7773ZM201.969 10.9004C201.969 11.6191 202.117 12.1816 202.414 12.5879C202.711 12.9941 203.121 13.1973 203.645 13.1973C204.332 13.1973 204.834 12.8887 205.15 12.2715V9.35938C204.826 8.76172 204.328 8.46289 203.656 8.46289C203.125 8.46289 202.711 8.66797 202.414 9.07812C202.117 9.48828 201.969 10.0957 201.969 10.9004ZM210.553 14.1172C209.693 14.1172 208.994 13.8359 208.455 13.2734C207.916 12.707 207.646 11.9512 207.646 11.0059V10.8066C207.646 10.1777 207.766 9.61719 208.004 9.125C208.246 8.62891 208.582 8.24219 209.012 7.96484C209.445 7.68359 209.914 7.54297 210.418 7.54297C211.242 7.54297 211.883 7.81445 212.34 8.35742C212.797 8.90039 213.025 9.67773 213.025 10.6895V11.1406H208.73C208.746 11.7656 208.928 12.2715 209.275 12.6582C209.627 13.041 210.072 13.2324 210.611 13.2324C210.994 13.2324 211.318 13.1543 211.584 12.998C211.85 12.8418 212.082 12.6348 212.281 12.377L212.943 12.8926C212.412 13.709 211.615 14.1172 210.553 14.1172ZM210.418 8.43359C209.98 8.43359 209.613 8.59375 209.316 8.91406C209.02 9.23047 208.836 9.67578 208.766 10.25H211.941V10.168C211.91 9.61719 211.762 9.19141 211.496 8.89062C211.23 8.58594 210.871 8.43359 210.418 8.43359ZM216.412 9.97461L217.818 7.66016H219.084L217.01 10.7949L219.148 14H217.895L216.43 11.627L214.965 14H213.705L215.844 10.7949L213.77 7.66016H215.023L216.412 9.97461ZM225.898 10.1973C224.934 9.91992 224.23 9.58008 223.789 9.17773C223.352 8.77148 223.133 8.27148 223.133 7.67773C223.133 7.00586 223.4 6.45117 223.936 6.01367C224.475 5.57227 225.174 5.35156 226.033 5.35156C226.619 5.35156 227.141 5.46484 227.598 5.69141C228.059 5.91797 228.414 6.23047 228.664 6.62891C228.918 7.02734 229.045 7.46289 229.045 7.93555H227.914C227.914 7.41992 227.75 7.01562 227.422 6.72266C227.094 6.42578 226.631 6.27734 226.033 6.27734C225.479 6.27734 225.045 6.40039 224.732 6.64648C224.424 6.88867 224.27 7.22656 224.27 7.66016C224.27 8.00781 224.416 8.30273 224.709 8.54492C225.006 8.7832 225.508 9.00195 226.215 9.20117C226.926 9.40039 227.48 9.62109 227.879 9.86328C228.281 10.1016 228.578 10.3809 228.77 10.7012C228.965 11.0215 229.062 11.3984 229.062 11.832C229.062 12.5234 228.793 13.0781 228.254 13.4961C227.715 13.9102 226.994 14.1172 226.092 14.1172C225.506 14.1172 224.959 14.0059 224.451 13.7832C223.943 13.5566 223.551 13.248 223.273 12.8574C223 12.4668 222.863 12.0234 222.863 11.5273H223.994C223.994 12.043 224.184 12.4512 224.562 12.752C224.945 13.0488 225.455 13.1973 226.092 13.1973C226.686 13.1973 227.141 13.0762 227.457 12.834C227.773 12.5918 227.932 12.2617 227.932 11.8438C227.932 11.4258 227.785 11.1035 227.492 10.877C227.199 10.6465 226.668 10.4199 225.898 10.1973ZM232.883 13.2324C233.27 13.2324 233.607 13.1152 233.896 12.8809C234.186 12.6465 234.346 12.3535 234.377 12.002H235.402C235.383 12.3652 235.258 12.7109 235.027 13.0391C234.797 13.3672 234.488 13.6289 234.102 13.8242C233.719 14.0195 233.312 14.1172 232.883 14.1172C232.02 14.1172 231.332 13.8301 230.82 13.2559C230.312 12.6777 230.059 11.8887 230.059 10.8887V10.707C230.059 10.0898 230.172 9.54102 230.398 9.06055C230.625 8.58008 230.949 8.20703 231.371 7.94141C231.797 7.67578 232.299 7.54297 232.877 7.54297C233.588 7.54297 234.178 7.75586 234.646 8.18164C235.119 8.60742 235.371 9.16016 235.402 9.83984H234.377C234.346 9.42969 234.189 9.09375 233.908 8.83203C233.631 8.56641 233.287 8.43359 232.877 8.43359C232.326 8.43359 231.898 8.63281 231.594 9.03125C231.293 9.42578 231.143 9.99805 231.143 10.748V10.9531C231.143 11.6836 231.293 12.2461 231.594 12.6406C231.895 13.0352 232.324 13.2324 232.883 13.2324ZM240.535 14C240.473 13.875 240.422 13.6523 240.383 13.332C239.879 13.8555 239.277 14.1172 238.578 14.1172C237.953 14.1172 237.439 13.9414 237.037 13.5898C236.639 13.2344 236.439 12.7852 236.439 12.2422C236.439 11.582 236.689 11.0703 237.189 10.707C237.693 10.3398 238.4 10.1562 239.311 10.1562H240.365V9.6582C240.365 9.2793 240.252 8.97852 240.025 8.75586C239.799 8.5293 239.465 8.41602 239.023 8.41602C238.637 8.41602 238.312 8.51367 238.051 8.70898C237.789 8.9043 237.658 9.14062 237.658 9.41797H236.568C236.568 9.10156 236.68 8.79688 236.902 8.50391C237.129 8.20703 237.434 7.97266 237.816 7.80078C238.203 7.62891 238.627 7.54297 239.088 7.54297C239.818 7.54297 240.391 7.72656 240.805 8.09375C241.219 8.45703 241.434 8.95898 241.449 9.59961V12.5176C241.449 13.0996 241.523 13.5625 241.672 13.9062V14H240.535ZM238.736 13.1738C239.076 13.1738 239.398 13.0859 239.703 12.9102C240.008 12.7344 240.229 12.5059 240.365 12.2246V10.9238H239.516C238.188 10.9238 237.523 11.3125 237.523 12.0898C237.523 12.4297 237.637 12.6953 237.863 12.8867C238.09 13.0781 238.381 13.1738 238.736 13.1738ZM244.326 14H243.242V5H244.326V14ZM248.697 14.1172C247.838 14.1172 247.139 13.8359 246.6 13.2734C246.061 12.707 245.791 11.9512 245.791 11.0059V10.8066C245.791 10.1777 245.91 9.61719 246.148 9.125C246.391 8.62891 246.727 8.24219 247.156 7.96484C247.59 7.68359 248.059 7.54297 248.562 7.54297C249.387 7.54297 250.027 7.81445 250.484 8.35742C250.941 8.90039 251.17 9.67773 251.17 10.6895V11.1406H246.875C246.891 11.7656 247.072 12.2715 247.42 12.6582C247.771 13.041 248.217 13.2324 248.756 13.2324C249.139 13.2324 249.463 13.1543 249.729 12.998C249.994 12.8418 250.227 12.6348 250.426 12.377L251.088 12.8926C250.557 13.709 249.76 14.1172 248.697 14.1172ZM248.562 8.43359C248.125 8.43359 247.758 8.59375 247.461 8.91406C247.164 9.23047 246.98 9.67578 246.91 10.25H250.086V10.168C250.055 9.61719 249.906 9.19141 249.641 8.89062C249.375 8.58594 249.016 8.43359 248.562 8.43359Z" fill="black"/>
</svg>
